<?xml version="1.0" standalone="no"?>
<!DOCTYPE svg PUBLIC "-//W3C//DTD SVG 20010904//EN"
 "http://www.w3.org/TR/2001/REC-SVG-20010904/DTD/svg10.dtd">
<svg version="1.0" xmlns="http://www.w3.org/2000/svg"
 width="1024.000000pt" height="1024.000000pt" viewBox="0 0 1024.000000 1024.000000"
 preserveAspectRatio="xMidYMid meet">

<g transform="translate(0.000000,1024.000000) scale(0.100000,-0.100000)"
fill="#000000" stroke="none">
<path d="M0 5120 l0 -5120 5120 0 5120 0 0 5120 0 5120 -5120 0 -5120 0 0
-5120z m6499 3908 c-12 -24 -82 -158 -157 -298 -331 -627 -492 -928 -587
-1100 -56 -102 -131 -239 -165 -305 -35 -66 -102 -192 -150 -280 -48 -88 -121
-223 -163 -300 -41 -77 -134 -250 -207 -385 -73 -135 -164 -303 -202 -375 -39
-71 -79 -145 -90 -163 -11 -18 -19 -34 -17 -36 2 -2 168 0 369 4 201 5 572 11
825 15 l460 7 -129 -133 c-71 -74 -152 -156 -180 -184 -28 -27 -186 -192 -351
-365 -165 -173 -365 -382 -445 -465 -80 -82 -203 -213 -275 -290 -71 -77 -181
-194 -245 -260 -63 -66 -181 -190 -260 -275 -80 -85 -228 -242 -330 -350 -186
-196 -447 -477 -745 -800 -88 -96 -203 -220 -256 -275 -52 -56 -133 -144 -179
-196 -46 -52 -111 -123 -145 -159 -57 -59 -172 -186 -470 -520 -60 -67 -123
-139 -140 -158 -34 -41 -105 -119 -159 -177 -52 -56 -38 -29 284 525 193 333
333 574 358 620 25 45 58 103 490 855 130 226 254 444 277 485 23 41 140 245
259 453 120 208 230 402 246 430 16 29 56 99 89 157 34 58 61 108 61 113 0 4
-183 6 -407 4 -225 -3 -539 -2 -700 0 l-291 5 155 177 c85 97 241 275 347 395
492 563 645 737 831 945 110 124 220 248 245 276 82 95 523 589 579 650 107
115 415 462 465 524 16 20 61 70 100 111 39 41 107 115 151 165 44 49 103 115
130 145 28 30 84 93 125 140 41 47 98 110 126 140 29 30 76 83 106 116 29 34
118 134 198 224 80 89 153 173 163 186 28 36 30 29 6 -18z m-1702 -178 c424
-33 671 -234 676 -550 2 -86 -1 -100 -26 -150 -15 -30 -71 -102 -124 -160
-135 -149 -393 -436 -492 -549 -46 -53 -98 -112 -115 -131 -18 -19 -76 -84
-130 -145 -54 -60 -130 -146 -170 -190 -40 -44 -90 -100 -112 -125 -162 -186
-187 -208 -269 -246 -94 -43 -500 -162 -513 -149 -2 2 37 138 86 302 49 164
99 330 109 368 11 39 47 162 81 275 92 314 95 334 54 390 -33 44 -79 52 -282
48 -179 -3 -187 -4 -242 -31 -71 -35 -117 -85 -151 -167 -14 -36 -83 -265
-153 -510 -69 -245 -199 -704 -289 -1020 -90 -316 -198 -699 -240 -850 -96
-344 -143 -512 -290 -1020 -64 -223 -119 -414 -122 -425 -3 -11 -36 -126 -74
-256 -74 -252 -82 -309 -51 -369 32 -64 59 -72 256 -70 278 1 368 37 440 178
16 31 50 144 200 664 39 136 74 249 77 253 6 6 84 20 169 31 25 3 72 10 105
15 169 27 468 70 470 67 4 -4 -492 -903 -515 -933 -4 -5 -34 -59 -67 -120 -33
-60 -102 -184 -153 -275 -51 -91 -130 -232 -175 -315 -45 -82 -113 -206 -152
-275 -38 -69 -90 -164 -116 -211 -26 -48 -55 -91 -64 -95 -28 -14 -1278 -17
-1413 -4 -184 17 -308 57 -431 136 -177 115 -280 343 -249 551 7 42 34 153 62
247 28 94 52 180 55 191 3 11 44 153 91 315 46 162 88 309 92 325 17 66 41
151 113 400 41 143 107 375 146 515 102 359 150 526 171 595 10 33 42 143 70
245 29 102 74 259 100 350 26 91 58 201 69 245 12 44 42 148 66 230 55 191
147 513 191 675 19 69 47 170 63 225 65 222 150 522 156 554 15 72 88 280 125
356 21 44 69 118 107 165 212 261 499 407 853 433 109 8 1817 6 1927 -3z
m4588 -18 c235 -67 398 -207 456 -391 24 -78 26 -214 5 -301 -41 -168 -334
-1161 -346 -1174 -5 -4 -152 -28 -327 -52 -175 -23 -383 -52 -463 -64 -130
-19 -274 -39 -400 -55 -25 -4 -87 -13 -137 -21 -123 -19 -136 -18 -129 4 2 9
16 55 30 102 13 47 36 123 50 170 13 47 54 184 90 305 85 285 89 306 84 366
-10 104 -64 123 -336 117 -198 -5 -253 -17 -323 -71 -70 -54 -99 -122 -203
-482 -126 -437 -149 -537 -142 -599 7 -61 57 -147 111 -192 22 -18 74 -61 116
-96 101 -84 161 -135 368 -313 95 -82 265 -226 376 -320 298 -250 464 -395
521 -456 96 -103 142 -210 151 -354 7 -117 -8 -179 -156 -680 -29 -97 -43
-144 -195 -670 -158 -547 -200 -674 -268 -810 -171 -339 -526 -593 -938 -672
-88 -17 -169 -18 -1040 -18 l-945 0 -100 28 c-231 65 -377 169 -449 320 -83
172 -86 303 -11 537 18 58 48 152 65 210 17 58 40 132 50 165 10 33 28 96 40
140 12 44 57 199 102 345 l81 265 396 78 c218 43 410 80 426 83 33 5 68 12
255 48 69 14 177 34 240 46 63 11 123 22 133 24 20 5 22 -11 6 -51 -6 -15 -17
-53 -25 -83 -8 -30 -41 -140 -73 -245 -33 -104 -78 -253 -101 -330 -23 -77
-57 -187 -76 -245 -19 -58 -34 -123 -34 -146 0 -58 38 -124 86 -151 36 -21 51
-23 219 -23 331 0 398 39 486 289 71 203 220 719 259 900 22 99 20 155 -7 221
-20 48 -44 73 -233 229 -91 75 -176 146 -190 158 -14 12 -158 135 -321 275
-163 139 -297 257 -298 261 -1 4 98 112 221 239 290 301 288 299 288 305 0 3
-192 3 -427 -1 -236 -3 -486 -7 -558 -7 l-130 -1 -13 43 c-20 70 -23 176 -6
259 9 41 61 228 116 415 55 187 119 408 143 490 24 83 53 179 64 215 11 36 54
182 95 325 123 427 172 523 378 733 143 146 351 271 558 337 163 51 212 53
1275 51 l980 -2 80 -22z m-5456 -5939 c-149 -265 -346 -474 -575 -609 l-79
-46 60 64 c185 196 618 648 622 648 2 0 -10 -26 -28 -57z"/>
</g>
</svg>
